<svg width="225" height="224" viewBox="0 0 225 224" fill="none" xmlns="http://www.w3.org/2000/svg">
<path fill-rule="evenodd" clip-rule="evenodd" d="M99.9379 26.6354C99.9379 22.6946 103.133 19.5 107.073 19.5H117.049C120.99 19.5 124.184 22.6947 124.184 26.6355V132.971C135.346 137.111 142.316 147.856 142.316 160.459C142.316 173.062 135.346 183.807 124.184 187.948V197.365C124.184 201.305 120.99 204.5 117.049 204.5H107.073C103.133 204.5 99.9379 201.305 99.9379 197.365V187.948C88.7758 183.807 81.8061 173.062 81.8061 160.459C81.8061 147.856 88.7758 137.111 99.9379 132.971V26.6354ZM112.061 172.115C119.02 172.115 123.717 167.418 123.717 160.459C123.717 153.5 119.02 148.804 112.061 148.804C105.102 148.804 100.406 153.5 100.406 160.459C100.406 167.418 105.102 172.115 112.061 172.115Z" fill="white"/>
<path fill-rule="evenodd" clip-rule="evenodd" d="M165.489 26.6354C165.489 22.6946 168.684 19.5 172.625 19.5H182.6C186.541 19.5 189.736 22.6947 189.736 26.6355V70.7005C200.898 74.8412 207.868 85.5864 207.868 98.1893C207.868 110.792 200.898 121.537 189.736 125.678V197.365C189.736 201.305 186.541 204.5 182.6 204.5H172.625C168.684 204.5 165.489 201.305 165.489 197.365V125.678C154.327 121.537 147.358 110.792 147.358 98.1893C147.358 85.5865 154.327 74.8414 165.489 70.7006V26.6354ZM177.612 109.916C184.611 109.916 189.339 105.188 189.339 98.1893C189.339 91.1911 184.611 86.4631 177.612 86.4631C170.614 86.4631 165.886 91.1911 165.886 98.1893C165.886 105.188 170.614 109.916 177.612 109.916Z" fill="white"/>
<path fill-rule="evenodd" clip-rule="evenodd" d="M34.3864 26.6354C34.3864 22.6946 37.581 19.5 41.5218 19.5H51.4973C55.4381 19.5 58.6327 22.6947 58.6327 26.6355V35.2211C69.7948 39.3619 76.7645 50.107 76.7645 62.7099C76.7645 75.3127 69.7948 86.0578 58.6327 90.1986V197.365C58.6327 201.305 54.493 204.5 50.5522 204.5H42.4669C38.5261 204.5 34.3864 201.305 34.3864 197.365V90.1987C23.2242 86.0579 16.2544 75.3128 16.2544 62.7099C16.2544 50.1069 23.2242 39.3618 34.3864 35.2211V26.6354ZM46.5092 74.4376C53.5082 74.4376 58.237 69.7088 58.237 62.7098C58.237 55.7108 53.5082 50.9821 46.5092 50.9821C39.5102 50.9821 34.7815 55.7108 34.7815 62.7098C34.7815 69.7088 39.5102 74.4376 46.5092 74.4376Z" fill="white"/>
</svg>
