<svg width="225" height="225" viewBox="0 0 225 225" fill="none" xmlns="http://www.w3.org/2000/svg">
<path fill-rule="evenodd" clip-rule="evenodd" d="M112.125 8.75C54.925 8.75 8.125 55.55 8.125 112.75C8.125 169.95 54.925 216.75 112.125 216.75C169.325 216.75 216.125 169.95 216.125 112.75C216.125 55.55 169.845 8.75 112.125 8.75ZM159.965 161.03C157.885 164.15 154.245 165.19 151.125 163.11C126.685 148.03 96.005 144.91 59.605 153.23C55.965 154.27 52.845 151.67 51.805 148.55C50.765 144.91 53.365 141.79 56.485 140.75C96.005 131.91 130.325 135.55 157.365 152.19C161.005 153.75 161.525 157.91 159.965 161.03ZM172.445 132.43C169.845 136.07 165.165 137.63 161.525 135.03C133.445 117.87 90.805 112.67 58.045 123.07C53.885 124.11 49.205 122.03 48.165 117.87C47.125 113.71 49.205 109.03 53.365 107.99C91.325 96.55 138.125 102.27 170.365 122.03C173.485 123.59 175.045 128.79 172.445 132.43ZM173.485 103.31C140.205 83.55 84.565 81.47 52.845 91.35C47.645 92.91 42.445 89.79 40.885 85.11C39.325 79.91 42.445 74.71 47.125 73.15C84.045 62.23 144.885 64.31 183.365 87.19C188.045 89.79 189.605 96.03 187.005 100.71C184.405 104.35 178.165 105.91 173.485 103.31Z" fill="white"/>
</svg>
