<svg width="224" height="225" viewBox="0 0 224 225" fill="none" xmlns="http://www.w3.org/2000/svg">
<path fill-rule="evenodd" clip-rule="evenodd" d="M66.5769 27.1422L51.0833 12.4579V105.393H82.857C86.0293 92.2407 97.8736 82.4696 112 82.4696C126.127 82.4696 137.971 92.2407 141.143 105.393H172.513C169.016 75.0728 143.257 51.5306 112 51.5306C101.144 51.5306 90.9508 54.3705 82.1235 59.3479V12.4579L66.5769 27.1422ZM172.917 119.607H141.118C137.908 132.706 126.089 142.425 112 142.425C97.9113 142.425 86.0926 132.706 82.8826 119.607H51.4995C55.0433 149.876 80.7787 173.364 112 173.364C122.856 173.364 133.049 170.524 141.877 165.547L141.877 198.542L157.423 213.858L172.917 198.542L172.917 119.607Z" fill="white"/>
</svg>
