<svg width="224" height="224" viewBox="0 0 224 224" fill="none" xmlns="http://www.w3.org/2000/svg">
<path fill-rule="evenodd" clip-rule="evenodd" d="M111.893 216C169.39 216 216 169.438 216 112C216 54.5624 169.39 8 111.893 8C56.6584 8 11.4705 50.9703 8 105.273L63.0443 128.114C67.848 124.786 73.6802 122.837 79.9683 122.837C80.5546 122.837 81.137 122.854 81.7149 122.887L106.231 87.1542C106.223 86.8252 106.219 86.4952 106.219 86.1642C106.219 64.2132 124.032 46.4185 146.006 46.4185C167.98 46.4185 185.793 64.2132 185.793 86.1642C185.793 108.115 167.98 125.91 146.006 125.91C145.729 125.91 145.453 125.907 145.177 125.902L145.186 125.91L109.675 151.19C109.696 151.639 109.706 152.09 109.706 152.544C109.706 168.95 96.3918 182.251 79.9683 182.251C65.6023 182.251 53.6157 172.074 50.8376 158.544L12.3579 142.576C25.4297 185.092 65.0481 216 111.893 216ZM146.006 59.5305C131.281 59.5305 119.345 71.4548 119.345 86.1642C119.345 100.874 131.281 112.798 146.006 112.798C160.731 112.798 172.667 100.874 172.667 86.1642C172.667 71.4548 160.731 59.5305 146.006 59.5305ZM60.4238 162.522C64.0585 169.612 71.446 174.465 79.9683 174.465C92.0877 174.465 101.912 164.651 101.912 152.544C101.912 140.437 92.0877 130.622 79.9683 130.622C77.2916 130.622 74.7269 131.101 72.3552 131.977L85.4417 137.408C93.8098 140.88 97.7756 150.472 94.2996 158.831C90.8236 167.19 81.2222 171.152 72.8541 167.68L60.4238 162.522ZM166.104 86.1642C166.104 97.2529 157.106 106.242 146.006 106.242C134.906 106.242 125.908 97.2529 125.908 86.1642C125.908 75.0756 134.906 66.0865 146.006 66.0865C157.106 66.0865 166.104 75.0756 166.104 86.1642Z" fill="white"/>
</svg>
