<svg width="225" height="225" viewBox="0 0 225 225" fill="none" xmlns="http://www.w3.org/2000/svg">
<path fill-rule="evenodd" clip-rule="evenodd" d="M101.655 44.7824C101.655 37.7282 95.9366 32.0097 88.8824 32.0097C81.8283 32.0097 76.1098 37.7282 76.1098 44.7824L76.1098 198.862C76.1098 205.916 81.8283 211.635 88.8824 211.635C95.9366 211.635 101.655 205.916 101.655 198.862L101.655 44.7824ZM56.4663 111.849C56.4663 104.794 50.7478 99.076 43.6937 99.076C36.6395 99.076 30.921 104.794 30.921 111.849L30.921 198.867C30.921 205.921 36.6395 211.639 43.6937 211.639C50.7478 211.639 56.4663 205.921 56.4663 198.867L56.4663 111.849ZM135.154 128.821C142.208 128.821 147.926 134.539 147.926 141.593L147.926 198.662C147.926 205.716 142.208 211.435 135.154 211.435C128.099 211.435 122.381 205.716 122.381 198.662V141.593C122.381 134.539 128.099 128.821 135.154 128.821ZM193.579 111.849C193.579 104.794 187.86 99.076 180.806 99.076C173.752 99.076 168.034 104.794 168.034 111.849V198.764C168.034 205.818 173.752 211.537 180.806 211.537C187.86 211.537 193.579 205.818 193.579 198.764V111.849Z" fill="white"/>
</svg>
