<svg width="224" height="225" viewBox="0 0 224 225" fill="none" xmlns="http://www.w3.org/2000/svg">
<path fill-rule="evenodd" clip-rule="evenodd" d="M56.1282 14.6847C32.6561 14.6847 13.6282 33.7126 13.6282 57.1847V168.185C13.6282 191.657 32.6561 210.685 56.1282 210.685H167.128C190.6 210.685 209.628 191.657 209.628 168.185V57.1847C209.628 33.7126 190.6 14.6847 167.128 14.6847H56.1282ZM91.6863 39.7042C97.9601 39.7042 103.046 44.7901 103.046 51.0639L103.046 177.806C103.046 184.08 97.96 189.166 91.6863 189.166C85.4125 189.166 80.3266 184.08 80.3266 177.806L80.3266 51.0639C80.3266 44.7901 85.4125 39.7042 91.6863 39.7042ZM53.1776 89.0589C59.4514 89.0589 64.5373 94.1448 64.5373 100.419L64.5373 177.81C64.5373 184.084 59.4513 189.17 53.1776 189.17C46.9038 189.17 41.8179 184.084 41.8179 177.81L41.8179 100.419C41.8179 94.1448 46.9038 89.0589 53.1776 89.0589ZM142.517 126.873C142.517 120.599 137.431 115.513 131.158 115.513C124.884 115.513 119.798 120.599 119.798 126.873V177.628C119.798 183.902 124.884 188.988 131.158 188.988C137.431 188.988 142.517 183.902 142.517 177.628V126.873ZM170.079 89.0589C176.353 89.0589 181.439 94.1448 181.439 100.419V177.719C181.439 183.993 176.353 189.079 170.079 189.079C163.805 189.079 158.719 183.993 158.719 177.719V100.419C158.719 94.1448 163.805 89.0589 170.079 89.0589Z" fill="white"/>
</svg>
