<svg width="225" height="225" viewBox="0 0 225 225" fill="none" xmlns="http://www.w3.org/2000/svg">
<path fill-rule="evenodd" clip-rule="evenodd" d="M112.25 216.5C169.688 216.5 216.25 169.938 216.25 112.5C216.25 55.0624 169.688 8.5 112.25 8.5C54.8124 8.5 8.25 55.0624 8.25 112.5C8.25 169.938 54.8124 216.5 112.25 216.5ZM55.9988 44.179L70.3057 30.0363L84.6617 44.179V63.4674C92.8129 58.8712 102.225 56.2488 112.25 56.2488C141.218 56.2488 165.071 78.1451 168.162 106.289H139.232C136.413 93.9916 125.403 84.8182 112.25 84.8182C99.0971 84.8182 88.0867 93.9916 85.2677 106.289H55.9988V44.179ZM139.232 118.711H168.501V181.842L154.194 195.984L139.838 181.842V161.533C131.687 166.129 122.275 168.751 112.25 168.751C83.2823 168.751 59.4288 146.855 56.3377 118.711H85.2677C88.0867 131.008 99.0971 140.182 112.25 140.182C125.403 140.182 136.413 131.008 139.232 118.711Z" fill="white"/>
</svg>
