<svg width="224" height="225" viewBox="0 0 224 225" fill="none" xmlns="http://www.w3.org/2000/svg">
<path d="M75.0277 34.9913C67.9102 34.9913 46.4522 43.6945 42.6035 45.4343C38.7549 47.1741 34.4805 52.6044 29.6301 61.5671C24.7798 70.5298 20.8817 81.0034 14.5551 96.4145C8.22852 111.826 6.75313 141.542 6.96401 150.61C7.1749 159.678 8.21378 166.756 17.5049 172.12C26.796 177.485 35.0103 183.09 43.6567 186.464C52.303 189.838 58.2059 192.261 62.2127 188.887C66.2196 185.513 68.8578 179.609 68.8578 179.609C68.8578 179.609 72.6542 174.338 65.484 171.174C58.3139 168.011 54.7293 165.794 55.0457 162.526C55.362 159.257 55.886 157.467 57.6786 157.889C59.4711 158.311 63.6917 165.901 79.93 169.38C96.1682 172.86 112 172.335 112 172.335C112 172.335 127.832 172.86 144.07 169.38C160.308 165.901 164.529 158.311 166.321 157.889C168.114 157.467 168.638 159.257 168.954 162.526C169.271 165.794 165.686 168.011 158.516 171.174C151.346 174.338 155.142 179.609 155.142 179.609C155.142 179.609 157.78 185.513 161.787 188.887C165.794 192.261 171.697 189.838 180.343 186.464C188.99 183.09 197.204 177.485 206.495 172.12C215.786 166.756 216.825 159.678 217.036 150.61C217.247 141.542 215.771 111.826 209.445 96.4145C203.118 81.0034 199.22 70.5298 194.37 61.5671C189.519 52.6044 185.245 47.1741 181.396 45.4343C177.548 43.6945 156.09 34.9913 148.972 34.9913C141.855 34.9913 139.75 39.9495 139.75 39.9495L137.271 45.4343C137.271 45.4343 120.599 42.267 112.109 42.2624C103.62 42.2579 86.7289 45.4343 86.7289 45.4343L84.2498 39.9495C84.2498 39.9495 82.1451 34.9913 75.0277 34.9913ZM75.8012 100.79C75.8882 100.79 75.9752 100.79 76.0621 100.79C86.439 100.79 94.8512 109.87 94.8512 121.07C94.8512 132.271 86.439 141.351 76.0621 141.351C65.6853 141.351 57.2731 132.271 57.2731 121.07C57.2721 109.979 65.5264 100.944 75.8012 100.79H75.8012ZM147.938 100.79C148.025 100.79 148.112 100.79 148.199 100.79C158.473 100.944 166.728 109.979 166.727 121.07C166.727 132.271 158.315 141.351 147.938 141.351C137.561 141.351 129.149 132.271 129.149 121.07C129.149 109.87 137.561 100.79 147.938 100.79H147.938Z" fill="white"/>
</svg>
