<svg width="224" height="225" viewBox="0 0 224 225" fill="none" xmlns="http://www.w3.org/2000/svg">
<path fill-rule="evenodd" clip-rule="evenodd" d="M219.403 112.5C219.403 171.886 171.261 220.028 111.875 220.028C52.489 220.028 4.34717 171.886 4.34717 112.5C4.34717 53.114 52.489 4.97217 111.875 4.97217C171.261 4.97217 219.403 53.114 219.403 112.5ZM66.9065 71.2629C44.1319 71.2629 25.6694 89.7253 25.6694 112.5C25.6694 135.275 44.1319 153.737 66.9065 153.737C74.2555 153.737 81.1556 151.815 87.1311 148.445V179.861L97.6374 179.473L108.144 179.861V112.5C108.144 89.7254 89.6811 71.2629 66.9065 71.2629ZM66.9064 92.2067C78.1141 92.2067 87.1996 101.292 87.1996 112.5L87.1311 112.5V114.179C86.2774 124.601 77.5486 132.793 66.9064 132.793C55.6988 132.793 46.6132 123.708 46.6132 112.5C46.6132 101.292 55.6988 92.2067 66.9064 92.2067ZM126.363 45.5274L115.856 45.1392V112.5C115.856 135.275 134.319 153.737 157.093 153.737C179.868 153.737 198.331 135.275 198.331 112.5C198.331 89.7254 179.868 71.2629 157.093 71.2629C149.744 71.2629 142.844 73.1854 136.869 76.5548V45.1392L126.363 45.5274ZM136.8 112.5C136.8 123.708 145.886 132.793 157.094 132.793C168.301 132.793 177.387 123.708 177.387 112.5C177.387 101.292 168.301 92.2068 157.094 92.2068C146.451 92.2068 137.723 100.399 136.869 110.821V112.5L136.8 112.5Z" fill="white"/>
</svg>
