<svg width="225" height="225" viewBox="0 0 225 225" fill="none" xmlns="http://www.w3.org/2000/svg">
<path fill-rule="evenodd" clip-rule="evenodd" d="M101.366 37.4813C101.366 30.5893 95.7787 25.0023 88.8867 25.0023C81.9947 25.0023 76.4077 30.5893 76.4077 37.4813L76.4077 188.019C76.4077 194.911 81.9947 200.498 88.8867 200.498C95.7787 200.498 101.366 194.911 101.366 188.019L101.366 37.4813ZM56.1499 71.4248C56.1499 64.5328 50.5629 58.9458 43.6709 58.9458C36.7789 58.9458 31.1919 64.5328 31.1919 71.4248L31.1919 158.356C31.1919 165.248 36.7789 170.835 43.6709 170.835C50.5629 170.835 56.1499 165.248 56.1499 158.356L56.1499 71.4248ZM135.16 67.9097C142.052 67.9097 147.639 73.4967 147.639 80.3887L147.639 145.716C147.639 152.608 142.052 158.195 135.16 158.195C128.268 158.195 122.681 152.608 122.681 145.716V80.3887C122.681 73.4967 128.268 67.9097 135.16 67.9097ZM193.308 69.5108C193.308 62.6189 187.721 57.0318 180.829 57.0318C173.937 57.0318 168.35 62.6189 168.35 69.5108V155.385C168.35 162.277 173.937 167.864 180.829 167.864C187.721 167.864 193.308 162.277 193.308 155.385V69.5108Z" fill="white"/>
</svg>
