<svg width="225" height="225" viewBox="0 0 225 225" fill="none" xmlns="http://www.w3.org/2000/svg">
<path fill-rule="evenodd" clip-rule="evenodd" d="M167.378 33.4347H56.3782C43.3995 33.4347 32.8782 43.956 32.8782 56.9347V117.256C31.7422 121.338 27.9983 124.332 23.5549 124.332C18.2106 124.332 13.8782 120 13.8782 114.656V56.9347C13.8782 33.4626 32.9061 14.4347 56.3782 14.4347H167.378C190.85 14.4347 209.878 33.4626 209.878 56.9347V62.6116C209.862 67.9421 205.536 72.2583 200.202 72.2583C195.758 72.2583 192.014 69.2633 190.878 65.1819V56.9347C190.878 43.956 180.357 33.4347 167.378 33.4347ZM23.5549 147.377C27.9983 147.377 31.7422 150.371 32.8782 154.453V167.935C32.8782 180.913 43.3995 191.435 56.3782 191.435H167.378C180.357 191.435 190.878 180.913 190.878 167.935V102.379C192.014 98.2972 195.758 95.3023 200.202 95.3023C205.536 95.3023 209.862 99.6185 209.878 104.949V167.935C209.878 191.407 190.85 210.435 167.378 210.435H56.3782C32.9061 210.435 13.8782 191.407 13.8782 167.935V157.053C13.8782 151.709 18.2106 147.377 23.5549 147.377ZM56.7977 53.5501C56.7977 49.6841 59.9317 46.5501 63.7977 46.5501H67.2294C71.0954 46.5501 74.2294 49.6841 74.2294 53.5501V63.6265C78.7655 66.5119 81.7751 71.5832 81.7751 77.3575C81.7751 83.1318 78.7655 88.2032 74.2294 91.0885V171.45C74.2294 175.316 71.0954 178.45 67.2294 178.45H63.7977C59.9317 178.45 56.7977 175.316 56.7977 171.45V91.0885C52.2616 88.2032 49.252 83.1318 49.252 77.3575C49.252 71.5832 52.2616 66.5119 56.7977 63.6265V53.5501ZM103.034 53.5501C103.034 49.6841 106.168 46.5501 110.034 46.5501H113.466C117.332 46.5501 120.466 49.6841 120.466 53.5501V133.013C125.279 135.837 128.512 141.066 128.512 147.05C128.512 153.034 125.279 158.263 120.466 161.087V171.45C120.466 175.316 117.332 178.45 113.466 178.45H110.034C106.168 178.45 103.034 175.316 103.034 171.45V160.45C98.7781 157.517 95.9884 152.609 95.9884 147.05C95.9884 141.491 98.7781 136.583 103.034 133.65V53.5501ZM157.271 46.5501C153.405 46.5501 150.271 49.6841 150.271 53.5501V88.9224C145.734 91.8077 142.725 96.8791 142.725 102.653C142.725 108.428 145.734 113.499 150.271 116.384V171.45C150.271 175.316 153.405 178.45 157.271 178.45H160.702C164.568 178.45 167.702 175.316 167.702 171.45V116.384C172.238 113.499 175.248 108.428 175.248 102.653C175.248 96.8791 172.238 91.8077 167.702 88.9224V53.5501C167.702 49.6841 164.568 46.5501 160.702 46.5501H157.271Z" fill="white"/>
</svg>
