<svg width="224" height="224" viewBox="0 0 224 224" fill="none" xmlns="http://www.w3.org/2000/svg">
<path d="M71.1455 62.7099C71.1455 76.357 60.0823 87.4203 46.4351 87.4203C32.788 87.4203 21.7247 76.357 21.7247 62.7099C21.7247 49.0627 32.788 37.9995 46.4351 37.9995C60.0823 37.9995 71.1455 49.0627 71.1455 62.7099Z" fill="white"/>
<path d="M136.71 160.459C136.71 174.114 125.641 185.183 111.987 185.183C98.3323 185.183 87.2632 174.114 87.2632 160.459C87.2632 146.805 98.3323 135.736 111.987 135.736C125.641 135.736 136.71 146.805 136.71 160.459Z" fill="white"/>
<path d="M202.275 98.1894C202.275 111.851 191.2 122.926 177.538 122.926C163.876 122.926 152.801 111.851 152.801 98.1894C152.801 84.5275 163.876 73.4523 177.538 73.4523C191.2 73.4523 202.275 84.5275 202.275 98.1894Z" fill="white"/>
<path d="M172.123 19.5C168.317 19.5 165.231 22.5856 165.231 26.3919V67.7495H189.845V26.3919C189.845 22.5856 186.76 19.5 182.953 19.5H172.123Z" fill="white"/>
<path d="M189.845 128.629H165.231V197.608C165.231 201.414 168.317 204.5 172.123 204.5H182.953C186.76 204.5 189.845 201.414 189.845 197.608V128.629Z" fill="white"/>
<path d="M106.572 19.5001C102.765 19.5001 99.6799 22.5857 99.6799 26.392V130.019H124.294V26.392C124.294 22.5857 121.208 19.5001 117.402 19.5001H106.572Z" fill="white"/>
<path d="M124.294 190.899H99.6799V197.608C99.6799 201.414 102.765 204.5 106.572 204.5H117.402C121.208 204.5 124.294 201.414 124.294 197.608V190.899Z" fill="white"/>
<path d="M41.02 19.5001C37.2137 19.5001 34.1281 22.5857 34.1281 26.392V32.27H58.742V26.392C58.742 22.5857 55.6564 19.5001 51.8501 19.5001H41.02Z" fill="white"/>
<path d="M58.742 93.1498H34.1281V197.608C34.1281 201.414 37.2137 204.5 41.02 204.5H51.8501C55.6564 204.5 58.742 201.414 58.742 197.608V93.1498Z" fill="white"/>
</svg>
