<svg width="225" height="224" viewBox="0 0 225 224" fill="none" xmlns="http://www.w3.org/2000/svg">
<path fill-rule="evenodd" clip-rule="evenodd" d="M56.2532 13.9347C32.7811 13.9347 13.7532 32.9626 13.7532 56.4347V107.062L63.896 127.891C68.6284 124.61 74.374 122.687 80.5687 122.687C81.1463 122.687 81.7201 122.704 82.2895 122.737L106.442 87.4978C106.434 87.1734 106.43 86.8479 106.43 86.5216C106.43 64.8742 123.979 47.3255 145.626 47.3255C167.273 47.3255 184.822 64.8742 184.822 86.5216C184.822 108.169 167.273 125.718 145.626 125.718C145.353 125.718 145.081 125.715 144.81 125.709L144.818 125.718L109.835 150.648C109.855 151.091 109.865 151.536 109.865 151.983C109.865 168.163 96.7484 181.279 80.5687 181.279C66.4161 181.279 54.6074 171.243 51.8706 157.9L13.7532 142.067V167.435C13.7532 190.907 32.7811 209.935 56.2532 209.935H167.253C190.725 209.935 209.753 190.907 209.753 167.435V56.4347C209.753 32.9626 190.725 13.9347 167.253 13.9347H56.2532ZM145.626 60.2562C131.12 60.2562 119.361 72.0156 119.361 86.5216C119.361 101.028 131.12 112.787 145.626 112.787C160.132 112.787 171.891 101.028 171.891 86.5216C171.891 72.0156 160.132 60.2562 145.626 60.2562ZM61.3144 161.823C64.8951 168.816 72.173 173.601 80.5687 173.601C92.5082 173.601 102.187 163.923 102.187 151.983C102.187 140.043 92.5082 130.365 80.5687 130.365C77.9318 130.365 75.4051 130.837 73.0686 131.701L85.9609 137.056C94.2047 140.481 98.1116 149.939 94.6873 158.183C91.2629 166.427 81.804 170.334 73.5602 166.91L61.3144 161.823ZM165.426 86.5216C165.426 97.4568 156.561 106.322 145.626 106.322C134.691 106.322 125.826 97.4568 125.826 86.5216C125.826 75.5863 134.691 66.7215 145.626 66.7215C156.561 66.7215 165.426 75.5863 165.426 86.5216Z" fill="white"/>
</svg>
