<svg width="225" height="225" viewBox="0 0 225 225" fill="none" xmlns="http://www.w3.org/2000/svg">
<path fill-rule="evenodd" clip-rule="evenodd" d="M165.106 160.789C191.775 160.789 213.395 139.169 213.395 112.5C213.395 85.8309 191.775 64.2113 165.106 64.2113C138.437 64.2113 116.817 85.8309 116.817 112.5C116.817 139.169 138.437 160.789 165.106 160.789ZM165.106 136.263C178.23 136.263 188.87 125.624 188.87 112.5C188.87 99.3759 178.23 88.7366 165.106 88.7366C151.982 88.7366 141.343 99.3759 141.343 112.5C141.343 125.624 151.982 136.263 165.106 136.263Z" fill="white"/>
<path d="M116.817 33.6202H129.081H141.423V112.5L116.817 112.5V33.6202Z" fill="white"/>
<path fill-rule="evenodd" clip-rule="evenodd" d="M59.1439 64.2112C32.4747 64.2112 10.8551 85.8308 10.8551 112.5C10.8551 139.169 32.4747 160.789 59.1439 160.789C85.813 160.789 107.433 139.169 107.433 112.5C107.433 85.8308 85.813 64.2112 59.1439 64.2112ZM59.1438 88.7366C46.0196 88.7366 35.3804 99.3758 35.3804 112.5C35.3804 125.624 46.0196 136.263 59.1438 136.263C72.268 136.263 82.9072 125.624 82.9072 112.5C82.9072 99.3758 72.268 88.7366 59.1438 88.7366Z" fill="white"/>
<path d="M107.433 191.38L95.0459 191.38L82.827 191.38V112.5L107.433 112.5V191.38Z" fill="white"/>
</svg>
